<svg xmlns="http://www.w3.org/2000/svg" xmlns:xlink="http://www.w3.org/1999/xlink" width="50" height="50" viewBox="0 0 50 50">
  <defs>
    <linearGradient id="linear-gradient" y1="0.5" x2="1" y2="0.5" gradientUnits="objectBoundingBox">
      <stop offset="0.32" stop-color="#9eedff"/>
      <stop offset="0.955" stop-color="#afc6e9"/>
    </linearGradient>
    <linearGradient id="linear-gradient-2" x1="1" y1="0.236" x2="0.274" y2="0.892" gradientUnits="objectBoundingBox">
      <stop offset="0" stop-color="#8177de"/>
      <stop offset="1" stop-color="#e06ff5"/>
    </linearGradient>
    <linearGradient id="linear-gradient-3" y1="0.5" x2="1" y2="0.5" gradientUnits="objectBoundingBox">
      <stop offset="0.32" stop-color="#dcfaff"/>
      <stop offset="0.97" stop-color="#fdffff"/>
    </linearGradient>
    <linearGradient id="linear-gradient-5" y1="0.5" x2="1" y2="0.5" gradientUnits="objectBoundingBox">
      <stop offset="0" stop-color="#e06ff5"/>
      <stop offset="0.32" stop-color="#9eedff"/>
      <stop offset="1" stop-color="#1f54a3"/>
    </linearGradient>
    <linearGradient id="linear-gradient-7" x1="0.5" x2="0.5" y2="1" gradientUnits="objectBoundingBox">
      <stop offset="0" stop-color="#a0ebff"/>
      <stop offset="0.33" stop-color="#0d71ac"/>
      <stop offset="1" stop-color="#e06ff5"/>
    </linearGradient>
    <linearGradient id="linear-gradient-9" y1="0.5" x2="1" y2="0.5" gradientUnits="objectBoundingBox">
      <stop offset="0" stop-color="#1580c3"/>
      <stop offset="0.955" stop-color="#e06ff5"/>
      <stop offset="1" stop-color="#afc6e9"/>
    </linearGradient>
  </defs>
  <g id="Group_47" data-name="Group 47" transform="translate(-1343 -480)">
    <g id="Ellipse_2" data-name="Ellipse 2" transform="translate(1343 480)" fill="#2b2638" stroke="#2b2638" stroke-width="1">
      <circle cx="25" cy="25" r="25" stroke="none"/>
      <circle cx="25" cy="25" r="24.5" fill="none"/>
    </g>
    <g id="Group_5" data-name="Group 5" transform="translate(-129.39 350.78)">
      <path id="m" d="M155.17,117.217h0a2.741,2.741,0,0,1,1.939.8l7.725,8.038a.548.548,0,0,0,.812,0l7.287-7.584a14.853,14.853,0,1,0-1.632,20.2v-10.3a.274.274,0,0,0-.468-.193l-4.769,5.48a1.1,1.1,0,0,1-1.653,0l-4.77-5.48a.274.274,0,0,0-.467.193v10.625c-2.975,0-5.387-1.982-5.387-4.957V118.6A1.383,1.383,0,0,1,155.17,117.217Z" transform="translate(1333.003 25.94)" fill="url(#linear-gradient)"/>
      <path id="end-corner" d="M182.579,150.205c-.05,0-.1-.012-.148-.016a21.507,21.507,0,0,1,1.484,6.13,14.133,14.133,0,0,0,4.041-2.476V144.96l-4.031,4.633A1.782,1.782,0,0,1,182.579,150.205Z" transform="translate(1315.661 10.467)" fill="url(#linear-gradient-2)"/>
      <path id="top-corner" d="M163.417,114.172a14.178,14.178,0,0,0-12.572,7.647,21.576,21.576,0,0,1,4.378,1.33v-3.908a2.074,2.074,0,0,1,2.071-2.071,3.455,3.455,0,0,1,2.434,1.016l7.636,7.944,6.773-7.049A14.092,14.092,0,0,0,163.417,114.172Z" transform="translate(1330.88 25.301)" fill="url(#linear-gradient-3)"/>
      <g id="bult-4" transform="translate(1507.487 157.239)">
        <rect id="Rectangle_5" data-name="Rectangle 5" width="5.189" height="5.189" rx="1.617" fill="url(#linear-gradient-3)"/>
        <path id="Rectangle_9" data-name="Rectangle 9" d="M.748,0H3.54a.747.747,0,0,1,.747.747V3.54a.749.749,0,0,1-.749.749H.747A.747.747,0,0,1,0,3.542V.748A.748.748,0,0,1,.748,0Z" transform="translate(0.451 0.45)" fill="url(#linear-gradient-5)"/>
      </g>
      <g id="bult-3" transform="translate(1512.676 153.415)">
        <path id="Rectangle_7" data-name="Rectangle 7" d="M1.032,0h1A1.033,1.033,0,0,1,3.062,1.033v1A1.032,1.032,0,0,1,2.029,3.062h-1A1.032,1.032,0,0,1,0,2.029v-1A1.032,1.032,0,0,1,1.032,0Z" transform="translate(0 0)" fill="url(#linear-gradient-3)"/>
        <path id="Path_4459" data-name="Path 4459" d="M.085,0H2.076A.085.085,0,0,1,2.16.085V2.077a.085.085,0,0,1-.085.085H.084A.084.084,0,0,1,0,2.077V.085A.085.085,0,0,1,.085,0Z" transform="translate(0.45 0.45)" fill="url(#linear-gradient-7)"/>
      </g>
      <g id="bult-2" transform="translate(1508.412 149.029)">
        <rect id="Rectangle_6" data-name="Rectangle 6" width="3.938" height="3.938" rx="1.466" fill="url(#linear-gradient-3)"/>
        <path id="Rectangle_10" data-name="Rectangle 10" d="M.6,0H2.44a.6.6,0,0,1,.6.6V2.44a.6.6,0,0,1-.6.6H.6a.6.6,0,0,1-.6-.6V.6A.6.6,0,0,1,.6,0Z" transform="translate(0.45 0.45)" fill="url(#linear-gradient-9)"/>
      </g>
      <g id="bult-1" transform="translate(1512.322 145.991)">
        <rect id="Rectangle_8" data-name="Rectangle 8" width="2.251" height="2.251" rx="0.799" fill="url(#linear-gradient-3)"/>
        <rect id="Rectangle_12" data-name="Rectangle 12" width="1.387" height="1.387" transform="translate(0.414 0.414)" fill="url(#linear-gradient)"/>
      </g>
    </g>
  </g>
</svg>
